<svg width="375" height="405" viewBox="0 0 375 405" fill="none" xmlns="http://www.w3.org/2000/svg">
<path d="M-45.5678 35.5088C-48.3779 17.9255 -34.7947 1.99904 -16.9882 1.99904L150.163 1.99904C164.385 1.99904 176.499 12.3309 178.743 26.3738L233.453 368.701C236.263 386.285 222.679 402.211 204.873 402.211H37.7214C23.5002 402.211 11.3861 391.879 9.14176 377.836L-45.5678 35.5088Z" fill="#007AFF"/>
<path d="M233.453 368.701L235.239 368.416L233.453 368.701ZM178.743 26.3738L176.957 26.6593L178.743 26.3738ZM-16.9882 3.80793L150.163 3.80793V0.190144L-16.9882 0.190144V3.80793ZM176.957 26.6593L231.666 368.987L235.239 368.416L180.529 26.0884L176.957 26.6593ZM204.873 400.402H37.7214V404.02H204.873V400.402ZM10.928 377.551L-43.7816 35.2234L-47.3541 35.7943L7.35554 378.122L10.928 377.551ZM37.7214 400.402C24.389 400.402 13.032 390.716 10.928 377.551L7.35554 378.122C9.74011 393.043 22.6114 404.02 37.7214 404.02V400.402ZM231.666 368.987C234.301 385.471 221.566 400.402 204.873 400.402V404.02C223.792 404.02 238.225 387.098 235.239 368.416L231.666 368.987ZM150.163 3.80793C163.496 3.80793 174.853 13.494 176.957 26.6593L180.529 26.0884C178.145 11.1677 165.273 0.190144 150.163 0.190144V3.80793ZM-16.9882 0.190144C-35.9076 0.190144 -50.3398 17.112 -47.3541 35.7943L-43.7816 35.2234C-46.4161 18.739 -33.6818 3.80793 -16.9882 3.80793V0.190144Z" fill="black"/>
<path d="M91.416 33.4695L101.613 33.4695" stroke="black" stroke-width="3.61779" stroke-linejoin="round"/>
<path d="M22.312 33.4695H75.1778" stroke="black" stroke-width="3.61779" stroke-linejoin="round"/>
<path d="M-19.2242 63.6031H206.547L252.248 349.34H26.4766L-19.2242 63.6031Z" fill="white" stroke="black" stroke-width="3.61779"/>
<path d="M136.323 104.833L17.5747 104.833L15.0357 90.1675L133.491 90.1676L136.323 104.833Z" fill="#007AFF"/>
<path d="M188.038 137.523L69.2891 137.523L66.7501 122.857L185.206 122.857L188.038 137.523Z" fill="#007AFF"/>
<path d="M136.323 104.833L17.5747 104.833L15.0357 90.1675L133.491 90.1676L136.323 104.833Z" stroke="black" stroke-width="3.61779"/>
<path d="M188.038 137.523L69.2891 137.523L66.7501 122.857L185.206 122.857L188.038 137.523Z" stroke="black" stroke-width="3.61779"/>
<path d="M216.053 321.318L97.3047 321.318L94.7657 306.653L213.221 306.653L216.053 321.318Z" fill="#007AFF" stroke="black" stroke-width="3.61779"/>
<path d="M293.099 209.433C296.684 230.153 280.732 249.104 259.704 249.104L76.9237 249.104C60.3619 249.104 46.2259 237.133 43.4964 220.798C40.0441 200.137 55.9757 181.322 76.9238 181.322L259.704 181.322C276.192 181.322 290.287 193.187 293.099 209.433Z" fill="black" stroke="black" stroke-width="3.21853"/>
<path d="M87 239C88.719 237.282 91.5941 236.38 93.6573 235.337C99.1714 232.55 104.418 229.436 109.191 225.483C115.865 219.957 121.916 211.896 123.641 203.197C125.734 192.641 89.0149 206.021 96.4441 210.264C106.345 215.92 120.608 213.557 130.918 211.09C139.553 209.024 147.693 205.995 155.431 201.649C157.865 200.282 160.929 196.615 159.56 201.339C159.105 202.908 154.291 214.278 155.947 215.578C158.021 217.207 165.834 212.053 166.578 210.007C167.17 208.38 164.116 212.476 163.172 213.927C161.043 217.202 156.146 222.962 155.896 227.083C155.689 230.491 162.386 224.824 165.34 223.11C170.336 220.213 175.196 217.102 179.842 213.669C183.15 211.225 175.283 219.887 174.836 222.233C174.752 222.675 199.566 216.478 202.291 216.094C205.904 215.585 196.134 220.147 192.692 221.356C179.971 225.826 166.752 226.885 153.367 227.444C139.199 228.036 124.969 227.857 110.791 227.857C107.333 227.857 103.784 228.442 100.418 227.65C99.2889 227.385 102.159 226.015 103.256 225.638C116.042 221.249 130.095 219.998 143.458 219.086C168.676 217.366 194.012 217.642 219.27 217.642C228.515 217.642 238.668 218.295 248.015 217.435C249.457 217.303 248.99 217.069 248.634 216.713" stroke="white" stroke-width="3" stroke-linecap="round"/>
</svg>
