<svg width="149" height="133" viewBox="0 0 149 133" fill="none" xmlns="http://www.w3.org/2000/svg">
<mask id="path-1-inside-1_1_1538" fill="white">
<path fill-rule="evenodd" clip-rule="evenodd" d="M16.2105 46.5646C32.1099 22.4022 62.8576 10.9063 91.7263 20.4521C120.595 29.9978 138.428 57.5576 136.79 86.4354C120.89 110.598 90.1424 122.094 61.2737 112.548C32.4051 103.002 14.5716 75.4424 16.2105 46.5646Z"/>
</mask>
<path fill-rule="evenodd" clip-rule="evenodd" d="M16.2105 46.5646C32.1099 22.4022 62.8576 10.9063 91.7263 20.4521C120.595 29.9978 138.428 57.5576 136.79 86.4354C120.89 110.598 90.1424 122.094 61.2737 112.548C32.4051 103.002 14.5716 75.4424 16.2105 46.5646Z" fill="white"/>
<path d="M16.2105 46.5646L13.7044 44.9155L13.261 45.5893L13.2153 46.3946L16.2105 46.5646ZM136.79 86.4354L139.296 88.0845L139.739 87.4107L139.785 86.6054L136.79 86.4354ZM18.7166 48.2137C33.8853 25.1618 63.23 14.1892 90.7844 23.3004L92.6681 17.6038C62.4853 7.62347 30.3346 19.6425 13.7044 44.9155L18.7166 48.2137ZM90.7844 23.3004C118.339 32.4116 135.358 58.7149 133.794 86.2654L139.785 86.6054C141.499 56.4003 122.851 27.584 92.6681 17.6038L90.7844 23.3004ZM134.283 84.7863C119.115 107.838 89.7701 118.811 62.2156 109.7L60.3319 115.396C90.5147 125.377 122.665 113.357 139.296 88.0845L134.283 84.7863ZM62.2156 109.7C34.6611 100.588 17.6421 74.2851 19.2057 46.7346L13.2153 46.3946C11.5011 76.5997 30.1491 105.416 60.3319 115.396L62.2156 109.7Z" fill="black" mask="url(#path-1-inside-1_1_1538)"/>
<path d="M104.355 75.7101C99.2894 91.0281 82.7148 99.333 67.3265 94.2447C51.9381 89.1563 43.5816 72.6077 48.6467 57.2897C53.7117 41.9716 70.2864 33.6668 85.6747 38.7551C101.063 43.8434 109.42 60.3921 104.355 75.7101Z" fill="#007AFF" stroke="black" stroke-width="3"/>
<path d="M92.2251 71.6994C89.3668 80.3434 80.0117 85.0336 71.3223 82.1604C62.633 79.2872 57.918 69.9445 60.7762 61.3004C63.6345 52.6564 72.9896 47.9661 81.679 50.8394C90.3684 53.7126 95.0834 63.0553 92.2251 71.6994Z" fill="black" stroke="black" stroke-width="3"/>
</svg>
