<svg width="137" height="241" viewBox="0 0 137 241" fill="none" xmlns="http://www.w3.org/2000/svg">
<path fill-rule="evenodd" clip-rule="evenodd" d="M162.22 82.3392C162.222 82.3396 162.223 82.3387 162.224 82.3371C164.867 72.5036 164.536 62.1071 161.271 52.4621C160.182 49.2441 158.782 46.158 157.101 43.2435C157.095 43.2336 157.099 43.2209 157.109 43.2152C157.118 43.2095 157.122 43.1968 157.116 43.187C152.017 34.3804 144.422 27.2823 135.291 22.7891C132.735 21.5316 130.092 20.494 127.388 19.6808C123.673 18.5587 119.824 17.8544 115.912 17.5946C105.758 16.9203 95.6323 19.2699 86.8132 24.3464C86.8026 24.3525 86.799 24.3659 86.8051 24.3765C86.8111 24.387 86.8075 24.4005 86.797 24.4065C83.8833 26.0901 81.1279 28.0633 78.5753 30.3058C70.9255 37.0262 65.4401 45.8639 62.8126 55.7015C62.8121 55.7033 62.8131 55.705 62.8149 55.7055C62.8166 55.706 62.8176 55.7077 62.8172 55.7095L47.7071 112.101C46.2321 117.606 49.4989 123.264 55.0037 124.739C60.5084 126.214 66.1666 122.947 67.6416 117.442L82.7511 61.0526C82.7544 61.0404 82.767 61.0332 82.7792 61.0364C82.7914 61.0397 82.804 61.0324 82.8073 61.0202C84.3811 55.1438 87.66 49.8649 92.2306 45.8496C96.807 41.8292 102.473 39.2562 108.511 38.4559C112.858 37.8798 117.257 38.2408 121.419 39.4911C124.964 40.5635 128.304 42.272 131.27 44.5522C136.1 48.2646 139.72 53.3258 141.673 59.0957C143.624 64.8583 143.824 71.0693 142.249 76.9452C142.245 76.9576 142.253 76.9704 142.265 76.9737C142.278 76.977 142.285 76.9898 142.282 77.0022L127.172 133.391C125.697 138.895 128.964 144.554 134.469 146.029C139.974 147.503 145.632 144.237 147.107 138.732L162.217 82.3412C162.217 82.3397 162.219 82.3387 162.22 82.3392Z" fill="#007AFF"/>
<path d="M161.271 52.4621L159.558 53.0421L159.558 53.0421L161.271 52.4621ZM135.291 22.7891L136.09 21.1661L135.291 22.7891ZM127.388 19.6808L126.865 21.4125L126.867 21.4131L127.388 19.6808ZM115.912 17.5946L115.792 19.3995L115.912 17.5946ZM78.5753 30.3058L77.3814 28.9469L78.5753 30.3058ZM92.2306 45.8496L91.0367 44.4906L92.2306 45.8496ZM108.511 38.4559L108.274 36.6626L108.511 38.4559ZM121.419 39.4911L121.943 37.7597L121.939 37.7587L121.419 39.4911ZM131.27 44.5522L130.168 45.9863L131.27 44.5522ZM141.673 59.0957L139.96 59.6757L139.96 59.6757L141.673 59.0957ZM142.249 76.9452L143.996 77.4136L142.249 76.9452ZM82.8073 61.0202L84.5546 61.4881L82.8073 61.0202ZM62.8172 55.7095L61.0699 55.2413L62.8172 55.7095ZM62.8126 55.7015L61.0649 55.2347L62.8126 55.7015ZM82.7511 61.0526L81.0039 60.5845L82.7511 61.0526ZM157.116 43.187L155.551 44.0934L157.116 43.187ZM86.8132 24.3464L85.9107 22.7787L86.8132 24.3464ZM67.6416 117.442L65.8943 116.974L67.6416 117.442ZM157.101 43.2435L158.668 42.3396L157.101 43.2435ZM162.224 82.3371L163.971 82.8067L162.224 82.3371ZM159.558 53.0421C162.708 62.3483 163.028 72.3795 160.477 81.8675L163.971 82.8067C166.707 72.6277 166.364 61.866 162.984 51.8821L159.558 53.0421ZM155.534 44.1473C157.156 46.9594 158.507 49.9371 159.558 53.0421L162.984 51.8821C161.857 48.5511 160.408 45.3566 158.668 42.3396L155.534 44.1473ZM158.682 42.2805C153.403 33.1646 145.542 25.8171 136.09 21.1661L134.492 24.4122C143.303 28.7475 150.631 35.5962 155.551 44.0934L158.682 42.2805ZM136.09 21.1661C133.444 19.8644 130.708 18.7903 127.909 17.9486L126.867 21.4131C129.476 22.1977 132.027 23.1988 134.492 24.4122L136.09 21.1661ZM115.792 19.3995C119.567 19.6502 123.281 20.3297 126.865 21.4125L127.911 17.9492C124.066 16.7876 120.082 16.0586 116.032 15.7897L115.792 19.3995ZM87.7156 25.9141C96.2249 21.0159 105.995 18.7489 115.792 19.3995L116.032 15.7897C105.521 15.0917 95.0397 17.5238 85.9107 22.7787L87.7156 25.9141ZM85.892 22.8403C82.876 24.5831 80.0237 26.6256 77.3814 28.9469L79.7692 31.6648C82.2321 29.501 84.8907 27.5972 87.702 25.9728L85.892 22.8403ZM77.3814 28.9469C69.4629 35.9034 63.7848 45.0515 61.0649 55.2347L64.5602 56.1683C67.0954 46.6763 72.3881 38.1491 79.7692 31.6648L77.3814 28.9469ZM61.0699 55.2413L45.9599 111.633L49.4544 112.569L64.5644 56.1776L61.0699 55.2413ZM69.3888 117.91L84.4984 61.5208L81.0039 60.5845L65.8943 116.974L69.3888 117.91ZM84.5546 61.4881C86.036 55.9569 89.1223 50.988 93.4245 47.2085L91.0367 44.4906C86.1977 48.7417 82.7262 54.3307 81.06 60.5522L84.5546 61.4881ZM93.4245 47.2085C97.732 43.4243 103.065 41.0024 108.749 40.2491L108.274 36.6626C101.88 37.51 95.8819 40.2341 91.0367 44.4906L93.4245 47.2085ZM108.749 40.2491C112.84 39.7069 116.981 40.0466 120.899 41.2235L121.939 37.7587C117.533 36.4349 112.875 36.0528 108.274 36.6626L108.749 40.2491ZM132.373 43.1181C129.232 40.7039 125.696 38.8951 121.943 37.7597L120.895 41.2225C124.232 42.2319 127.376 43.8401 130.168 45.9863L132.373 43.1181ZM143.387 58.5158C141.319 52.407 137.486 47.0485 132.373 43.1181L130.168 45.9863C134.714 49.4807 138.121 54.2447 139.96 59.6757L143.387 58.5158ZM143.996 77.4136C145.664 71.1925 145.452 64.6168 143.387 58.5158L139.96 59.6757C141.796 65.0998 141.984 70.946 140.502 76.4768L143.996 77.4136ZM128.92 133.859L144.029 77.4704L140.534 76.534L125.425 132.922L128.92 133.859ZM160.469 81.8731L145.36 138.264L148.854 139.2L163.964 82.8094L160.469 81.8731ZM125.425 132.922C123.692 139.392 127.531 146.042 134.001 147.776L134.937 144.281C130.397 143.065 127.703 138.399 128.92 133.859L125.425 132.922ZM141.795 78.7205C140.844 78.4646 140.279 77.4861 140.534 76.534L144.029 77.4704C144.291 76.4935 143.711 75.4895 142.735 75.2269L141.795 78.7205ZM140.502 76.4768C140.24 77.4513 140.816 78.4573 141.795 78.7205L142.735 75.2269C143.689 75.4835 144.251 76.4639 143.996 77.4136L140.502 76.4768ZM82.3125 62.7841C83.2918 63.0456 84.2936 62.4625 84.5546 61.4881L81.06 60.5522C81.3144 59.6023 82.2911 59.0338 83.2459 59.2888L82.3125 62.7841ZM62.3477 57.453C61.3839 57.1954 60.8117 56.205 61.0699 55.2413L64.5644 56.1776C64.8236 55.2105 64.2493 54.2165 63.282 53.958L62.3477 57.453ZM61.0649 55.2347C60.807 56.2003 61.3797 57.1943 62.3477 57.453L63.282 53.958C64.2465 54.2158 64.8172 55.2062 64.5602 56.1683L61.0649 55.2347ZM85.2377 25.2796C84.7453 24.4249 85.0385 23.3335 85.892 22.8403L87.702 25.9728C88.5765 25.4675 88.877 24.3491 88.3724 23.4734L85.2377 25.2796ZM84.4984 61.5208C84.2432 62.4733 83.2646 63.0383 82.3125 62.7841L83.2459 59.2888C82.2694 59.028 81.2657 59.6075 81.0039 60.5845L84.4984 61.5208ZM158.014 44.781C158.89 44.2742 159.187 43.1542 158.682 42.2805L155.551 44.0934C155.056 43.2395 155.347 42.1448 156.203 41.6495L158.014 44.781ZM85.9107 22.7787C85.0351 23.2828 84.7322 24.4022 85.2377 25.2796L88.3724 23.4734C88.8658 24.3297 88.5702 25.4222 87.7156 25.9141L85.9107 22.7787ZM54.5355 126.486C61.0052 128.22 67.6553 124.38 69.3888 117.91L65.8943 116.974C64.6779 121.514 60.0116 124.208 55.4718 122.992L54.5355 126.486ZM163.964 82.8094C163.706 83.7733 162.715 84.345 161.751 84.0861L162.69 80.5922C161.723 80.3325 160.729 80.9061 160.469 81.8731L163.964 82.8094ZM158.668 42.3396C159.161 43.194 158.869 44.2867 158.014 44.781L156.203 41.6495C155.329 42.1552 155.03 43.2731 155.534 44.1473L158.668 42.3396ZM45.9599 111.633C44.2263 118.102 48.0657 124.752 54.5355 126.486L55.4718 122.992C50.9321 121.775 48.238 117.109 49.4544 112.569L45.9599 111.633ZM134.001 147.776C140.47 149.509 147.121 145.67 148.854 139.2L145.36 138.264C144.143 142.804 139.477 145.498 134.937 144.281L134.001 147.776ZM160.477 81.8675C160.736 80.9054 161.726 80.3332 162.69 80.5922L161.751 84.0861C162.718 84.346 163.711 83.7719 163.971 82.8067L160.477 81.8675Z" fill="black"/>
<path d="M9.25198 167.516C4.2012 186.159 15.2194 205.366 33.8618 210.416L109.559 230.925C128.202 235.976 147.409 224.958 152.46 206.315L165.495 158.2C170.546 139.558 159.528 120.351 140.886 115.3L65.1881 94.7912C46.5457 89.7404 27.3386 100.759 22.2878 119.401L9.25198 167.516Z" fill="white" stroke="black" stroke-width="3.61779"/>
<mask id="path-4-inside-1_1_1537" fill="white">
<path fill-rule="evenodd" clip-rule="evenodd" d="M73.7294 172.41C74.7893 170.125 74.2377 167.464 72.878 165.343C69.9674 160.803 68.9053 155.101 70.4111 149.481C73.2496 138.887 84.1387 132.601 94.7323 135.439C105.326 138.278 111.613 149.167 108.774 159.76C107.269 165.38 103.498 169.787 98.7075 172.264C96.4697 173.421 94.662 175.449 94.4371 177.958L93.661 186.619C93.3268 190.348 89.711 192.874 86.0948 191.905L73.9809 188.659C70.3647 187.69 68.4964 183.694 70.0714 180.298L73.7294 172.41Z"/>
</mask>
<path fill-rule="evenodd" clip-rule="evenodd" d="M73.7294 172.41C74.7893 170.125 74.2377 167.464 72.878 165.343C69.9674 160.803 68.9053 155.101 70.4111 149.481C73.2496 138.887 84.1387 132.601 94.7323 135.439C105.326 138.278 111.613 149.167 108.774 159.76C107.269 165.38 103.498 169.787 98.7075 172.264C96.4697 173.421 94.662 175.449 94.4371 177.958L93.661 186.619C93.3268 190.348 89.711 192.874 86.0948 191.905L73.9809 188.659C70.3647 187.69 68.4964 183.694 70.0714 180.298L73.7294 172.41Z" fill="black"/>
<path d="M93.661 186.619L97.2643 186.942L93.661 186.619ZM86.0948 191.905L85.1585 195.399L86.0948 191.905ZM98.7075 172.264L97.046 169.05L98.7075 172.264ZM94.4371 177.958L98.0405 178.281L94.4371 177.958ZM73.9809 188.659L74.9173 185.164L73.9809 188.659ZM73.9056 150.417C72.6742 155.013 73.5392 159.672 75.9236 163.391L69.8323 167.296C66.3955 161.935 65.1364 155.188 66.9166 148.545L73.9056 150.417ZM93.796 138.934C85.1323 136.612 76.227 141.754 73.9056 150.417L66.9166 148.545C70.2723 136.021 83.145 128.589 95.6687 131.945L93.796 138.934ZM105.28 158.824C107.601 150.16 102.46 141.255 93.796 138.934L95.6687 131.945C108.192 135.3 115.624 148.173 112.269 160.697L105.28 158.824ZM97.046 169.05C100.97 167.021 104.048 163.419 105.28 158.824L112.269 160.697C110.489 167.34 106.025 172.553 100.369 175.477L97.046 169.05ZM90.0576 186.296L90.8338 177.635L98.0405 178.281L97.2643 186.942L90.0576 186.296ZM74.9173 185.164L87.0312 188.41L85.1585 195.399L73.0446 192.153L74.9173 185.164ZM77.0115 173.932L73.3535 181.82L66.7894 178.776L70.4474 170.888L77.0115 173.932ZM97.2643 186.942C96.7297 192.908 90.9443 196.95 85.1585 195.399L87.0312 188.41C88.4776 188.798 89.924 187.787 90.0576 186.296L97.2643 186.942ZM100.369 175.477C98.8371 176.269 98.1205 177.388 98.0405 178.281L90.8338 177.635C91.2035 173.509 94.1023 170.572 97.046 169.05L100.369 175.477ZM73.0446 192.153C67.2587 190.603 64.2694 184.21 66.7894 178.776L73.3535 181.82C72.7235 183.179 73.4708 184.777 74.9173 185.164L73.0446 192.153ZM75.9236 163.391C77.7122 166.181 78.7541 170.174 77.0115 173.932L70.4474 170.888C70.8245 170.075 70.7631 168.748 69.8323 167.296L75.9236 163.391Z" fill="black" mask="url(#path-4-inside-1_1_1537)"/>
</svg>
